<svg width="914" height="400" fill="none" xmlns="http://www.w3.org/2000/svg">
  <path fill="#fff" d="M0 0h914v400H0z"/>
  <path d="M427.899 197l-4.033 14h-4.539l-2.065-8.203a8.386 8.386 0 01-.232-1.791h-.082c-.064.711-.155 1.29-.273 1.736L414.46 211h-4.485l-3.951-14h4.402l1.928 9.133c.091.428.16.948.205 1.558h.082c.046-.638.128-1.175.246-1.613l2.407-9.078h4.115l2.16 9.133c.055.228.119.756.191 1.586h.096c.046-.529.119-1.058.219-1.586l1.818-9.133h4.006zm13.946 8.23h-9.133c.146 2.033 1.427 3.049 3.842 3.049 1.54 0 2.894-.364 4.061-1.093v3.117c-1.295.692-2.976 1.039-5.045 1.039-2.261 0-4.015-.625-5.264-1.873-1.249-1.258-1.873-3.008-1.873-5.25 0-2.324.674-4.166 2.023-5.524 1.349-1.358 3.008-2.037 4.977-2.037 2.042 0 3.618.606 4.73 1.819 1.121 1.212 1.682 2.857 1.682 4.935v1.818zm-4.006-2.652c0-2.005-.811-3.008-2.433-3.008-.693 0-1.295.287-1.805.862-.501.574-.807 1.289-.916 2.146h5.154zm10.391 6.795h-.054V211h-4.321v-20.727h4.321v8.832h.054c1.067-1.631 2.584-2.447 4.553-2.447 1.805 0 3.195.62 4.17 1.86.975 1.239 1.463 2.934 1.463 5.086 0 2.333-.57 4.206-1.709 5.619-1.139 1.412-2.662 2.119-4.567 2.119-1.722 0-3.026-.656-3.91-1.969zm-.123-5.906v1.435c0 .903.26 1.65.78 2.243.519.592 1.184.888 1.996.888.984 0 1.745-.378 2.283-1.135.547-.765.82-1.845.82-3.24 0-1.157-.25-2.06-.752-2.707-.492-.656-1.198-.984-2.119-.984-.866 0-1.586.323-2.16.971-.565.647-.848 1.49-.848 2.529z" fill="#333"/>
  <path d="M474.176 211v-2.379h-.054c-.948 1.805-2.42 2.707-4.416 2.707-3.327 0-4.991-2.032-4.991-6.098V197h1.75v7.902c0 1.677.297 2.917.889 3.719.602.802 1.518 1.203 2.748 1.203a3.86 3.86 0 001.641-.342 3.797 3.797 0 001.285-.984c.364-.428.647-.939.847-1.531a6.103 6.103 0 00.301-1.969V197h1.75v14h-1.75zm11.718-.164a4.34 4.34 0 01-1.969.451c-2.261 0-3.391-1.303-3.391-3.91v-8.846h-2.461V197h2.461v-3.527l1.75-.575V197h3.61v1.531h-3.61v8.573c0 .947.155 1.631.465 2.05.31.42.834.629 1.572.629.547 0 1.071-.164 1.573-.492v1.545zm3.199-17.377c-.337 0-.629-.119-.875-.355a1.2 1.2 0 01-.369-.903c0-.355.123-.647.369-.875.246-.237.538-.355.875-.355.174 0 .338.032.493.095.154.055.287.137.396.246.119.11.21.242.273.397.073.146.11.31.11.492a1.276 1.276 0 01-.369.903 1.392 1.392 0 01-.41.259c-.146.064-.31.096-.493.096zM488.232 211v-14h1.75v14h-1.75zm5.702 0v-20.727h1.75V211h-1.75zm4.908-2.516a5.6 5.6 0 00.862.561c.31.164.629.305.957.424.328.118.656.209.984.273.337.055.656.082.957.082 2.078 0 3.117-.779 3.117-2.338 0-.355-.072-.66-.218-.916a2.317 2.317 0 00-.629-.711 5.077 5.077 0 00-.985-.601 27.461 27.461 0 00-1.298-.574 13.064 13.064 0 01-1.668-.807 5.157 5.157 0 01-1.149-.889 3.321 3.321 0 01-.67-1.066 3.779 3.779 0 01-.218-1.326c0-.62.132-1.172.396-1.655a3.908 3.908 0 011.094-1.23 4.95 4.95 0 011.572-.766 6.48 6.48 0 011.887-.273c1.212 0 2.269.228 3.172.683v1.846c-1.049-.674-2.179-1.012-3.391-1.012-.438 0-.839.055-1.203.165a2.792 2.792 0 00-.916.464 2.198 2.198 0 00-.602.725 2.028 2.028 0 00-.205.916c0 .346.055.652.164.916.11.255.278.488.506.697.237.21.538.41.902.602.374.191.825.396 1.354.615a16.07 16.07 0 011.75.82c.492.265.898.556 1.217.875.319.31.556.661.711 1.053.155.383.232.83.232 1.34 0 .629-.132 1.189-.396 1.682a3.554 3.554 0 01-1.08 1.244 4.904 4.904 0 01-1.614.765 7.459 7.459 0 01-2.023.26c-1.413 0-2.602-.296-3.569-.889v-1.955z" fill="#555"/>
</svg>
